<?xml version="1.0" encoding="UTF-8"?>
<svg xmlns="http://www.w3.org/2000/svg" version="1.1" viewBox="0 0 1052.2 645.6">
  <defs>
    <style>
      .cls-1 {
        fill-rule: evenodd;
      }
    </style>
  </defs>
  <!-- Generator: Adobe Illustrator 28.7.1, SVG Export Plug-In . SVG Version: 1.2.0 Build 142)  -->
  <g>
    <g id="Layer_1">
      <path class="cls-1" d="M526.1,0c-120,0-217.3,97.3-217.3,217.3s97.3,217.3,217.3,217.3,217.3-97.3,217.3-217.3S646.1,0,526.1,0ZM581.7,338.1l-21.3-24-36,36.2c-20.5-.3-40.6-5.3-58.9-14.6s-34-22.8-46.2-39.3c3.8,1.2,7.8,1.9,11.8,2.2,5.9.1,12.3-2.1,12.3-12v-97.7c0-2.5-.4-5-1.5-7.3-1.1-2.3-2.6-4.3-4.6-5.8-2-1.6-4.3-2.7-6.7-3.2s-5-.5-7.4.2c-16.7,3.8-30,45.4-30,45.4-.2-19.2,3.8-38.2,11.7-55.7,7.9-17.5,19.5-33.1,34.1-45.6,19.1-16.5,42.5-27.3,67.5-31.2-18.2,10.4-28.4,27.3-28.4,41.5,0,22.8,13.8,20.1,17.8,16.7v131.8c.7,1.7,1.6,3.2,2.7,4.6,1.8,2.5,4.2,4.6,7,6,2.8,1.4,5.8,2.1,8.9,2.1,13.8,0,31.6-15.7,31.6-15.7v-106.7c0-10.9-8.2-24-16.4-28.5,0,0,15.2-2.7,26.9,6.3,2.2-2.7,4.5-5.3,7-7.7,27.3-26.8,53-34.4,74.5-38.2,0,0-39,30.6-39,71.7s.8,105.1.8,105.1c14.5,14,35.9-6.2,55.4-26.1-3.7,18.1-20.4,64.4-73.5,89.5Z"/>
      <g>
        <path d="M81.3,504.6v37c0,21.3-14.5,35.3-40.6,35.3S0,562.9,0,541.6v-37h20.4v35.4c0,12.2,6.8,20.1,20.3,20.1s20.2-7.9,20.2-20.1v-35.4h20.4Z"/>
        <path d="M177.7,504.6v70h-17.9l-45.2-46v46h-19.7v-70h21.6l41.5,42.8v-42.8h19.7Z"/>
        <path d="M251.6,574.6l-18.5-22.1h-20.6v22.1h-20.3v-70h49.1c17.9,0,31.8,7.9,31.8,23.9s-7.4,19.1-18.4,22.3l20.6,23.8h-23.7ZM239.8,537.7c7.3,0,12.6-2,12.6-8.8s-5.3-8.8-12.6-8.8h-27.4v17.6h27.4Z"/>
        <path d="M358.6,559v15.6h-74.7v-70h73.6v15.6h-53.5v11.5h44.1v14.9h-44.1v12.4h54.6Z"/>
        <path d="M429.5,561.2h-38.4l-6.6,13.4h-21.4l36.2-70h22.3l36.2,70h-21.7l-6.6-13.4ZM422.4,546.7l-12.1-24.8-12.2,24.8h24.3Z"/>
        <path d="M531.6,558.2v16.4h-67.5v-70h20.4v53.6h47.1Z"/>
        <path d="M642.3,559v15.6h-74.7v-70h73.6v15.6h-53.5v11.5h44.1v14.9h-44.1v12.4h54.6Z"/>
        <path d="M736.4,504.6v70h-17.9l-45.2-46v46h-19.7v-70h21.6l41.5,42.8v-42.8h19.7Z"/>
        <path d="M833.4,561.4c-7.5,9.3-21.3,15.5-40,15.5-28.7,0-46.5-13.6-46.5-37.3s17.8-37.3,46.5-37.3,29.8,6.1,37.1,12.9l-14.9,11c-6-5.4-12.3-7.8-21.7-7.8-17,0-26.3,7.5-26.3,21.2s9.6,21.3,26.6,21.3,15.4-1.7,20.3-6.2v-6.3h-23.2v-14.3h42.1v27.3Z"/>
        <path d="M845.4,574.6v-70h20.4v70h-20.4Z"/>
        <path d="M962.9,504.6v70h-17.9l-45.2-46v46h-19.7v-70h21.6l41.5,42.8v-42.8h19.7Z"/>
        <path d="M1052.2,559v15.6h-74.7v-70h73.6v15.6h-53.5v11.5h44.1v14.9h-44.1v12.4h54.6Z"/>
      </g>
      <g>
        <path d="M430.4,597.9v46.2h-13.5v-17.9h-27.7v17.9h-13.5v-46.2h13.5v17.2h27.7v-17.2h13.5Z"/>
        <path d="M437.4,621c0-15.6,11.8-24.6,30.1-24.6s30.2,9,30.2,24.6-11.9,24.6-30.2,24.6-30.1-9-30.1-24.6ZM484,621c0-8.7-6.3-13.7-16.4-13.7s-16.4,4.9-16.4,13.7,6.3,13.7,16.4,13.7,16.4-4.9,16.4-13.7Z"/>
        <path d="M544,644.1l-12.2-14.6h-13.6v14.6h-13.4v-46.2h32.4c11.8,0,21,5.2,21,15.8s-4.9,12.6-12.1,14.7l13.6,15.7h-15.6ZM536.2,619.8c4.8,0,8.3-1.3,8.3-5.8s-3.5-5.8-8.3-5.8h-18.1v11.6h18.1Z"/>
        <path d="M620.2,621c0,14.5-11.3,23.1-29,23.1h-25.8v-46.2h25.8c17.8,0,29,8.6,29,23.1ZM606.5,621c0-8.2-6.5-12.4-16.4-12.4h-11.3v24.8h11.3c9.9,0,16.4-4.2,16.4-12.4Z"/>
        <path d="M676.4,633.8v10.3h-49.3v-46.2h48.6v10.3h-35.3v7.6h29.1v9.8h-29.1v8.2h36Z"/>
      </g>
    </g>
  </g>
</svg>